<mxfile host="app.diagrams.net" agent="Mozilla/5.0 (Macintosh; Intel Mac OS X 10_15_7) AppleWebKit/537.36 (KHTML, like Gecko) Chrome/134.0.0.0 YaBrowser/25.4.0.0 Safari/537.36" version="27.0.9">
  <diagram name="Page-1" id="e7e014a7-5840-1c2e-5031-d8a46d1fe8dd">
    <mxGraphModel dx="1454" dy="1001" grid="1" gridSize="10" guides="1" tooltips="1" connect="1" arrows="1" fold="1" page="1" pageScale="1" pageWidth="1169" pageHeight="826" background="none" math="0" shadow="0">
      <root>
        <mxCell id="0" />
        <mxCell id="1" parent="0" />
        <mxCell id="6u5pU1ec1JOGG7oy_YjI-63" style="rounded=0;orthogonalLoop=1;jettySize=auto;html=1;exitX=0.5;exitY=0.5;exitDx=0;exitDy=0;exitPerimeter=0;entryX=0;entryY=0.5;entryDx=0;entryDy=0;endArrow=none;startFill=0;" edge="1" parent="1" source="6u5pU1ec1JOGG7oy_YjI-41" target="6u5pU1ec1JOGG7oy_YjI-48">
          <mxGeometry relative="1" as="geometry" />
        </mxCell>
        <mxCell id="6u5pU1ec1JOGG7oy_YjI-64" style="rounded=0;orthogonalLoop=1;jettySize=auto;html=1;exitX=0.5;exitY=0.5;exitDx=0;exitDy=0;exitPerimeter=0;entryX=0;entryY=0.5;entryDx=0;entryDy=0;endArrow=none;startFill=0;" edge="1" parent="1" source="6u5pU1ec1JOGG7oy_YjI-41" target="6u5pU1ec1JOGG7oy_YjI-49">
          <mxGeometry relative="1" as="geometry" />
        </mxCell>
        <mxCell id="6u5pU1ec1JOGG7oy_YjI-41" value="Менеджер" style="shape=umlActor;verticalLabelPosition=bottom;verticalAlign=top;html=1;outlineConnect=0;" vertex="1" parent="1">
          <mxGeometry x="40" y="110" width="30" height="60" as="geometry" />
        </mxCell>
        <mxCell id="6u5pU1ec1JOGG7oy_YjI-65" style="rounded=0;orthogonalLoop=1;jettySize=auto;html=1;exitX=0.5;exitY=0.5;exitDx=0;exitDy=0;exitPerimeter=0;entryX=0;entryY=0.5;entryDx=0;entryDy=0;endArrow=none;startFill=0;" edge="1" parent="1" source="6u5pU1ec1JOGG7oy_YjI-42" target="6u5pU1ec1JOGG7oy_YjI-54">
          <mxGeometry relative="1" as="geometry" />
        </mxCell>
        <mxCell id="6u5pU1ec1JOGG7oy_YjI-66" style="rounded=0;orthogonalLoop=1;jettySize=auto;html=1;exitX=0.5;exitY=0.5;exitDx=0;exitDy=0;exitPerimeter=0;entryX=0;entryY=0.5;entryDx=0;entryDy=0;endArrow=none;startFill=0;" edge="1" parent="1" source="6u5pU1ec1JOGG7oy_YjI-42" target="6u5pU1ec1JOGG7oy_YjI-55">
          <mxGeometry relative="1" as="geometry" />
        </mxCell>
        <mxCell id="6u5pU1ec1JOGG7oy_YjI-67" style="rounded=0;orthogonalLoop=1;jettySize=auto;html=1;exitX=0.5;exitY=0.5;exitDx=0;exitDy=0;exitPerimeter=0;entryX=0;entryY=0.5;entryDx=0;entryDy=0;endArrow=none;startFill=0;" edge="1" parent="1" source="6u5pU1ec1JOGG7oy_YjI-42" target="6u5pU1ec1JOGG7oy_YjI-56">
          <mxGeometry relative="1" as="geometry" />
        </mxCell>
        <mxCell id="6u5pU1ec1JOGG7oy_YjI-42" value="Партнер" style="shape=umlActor;verticalLabelPosition=bottom;verticalAlign=top;html=1;outlineConnect=0;" vertex="1" parent="1">
          <mxGeometry x="40" y="360" width="30" height="60" as="geometry" />
        </mxCell>
        <mxCell id="6u5pU1ec1JOGG7oy_YjI-62" style="rounded=0;orthogonalLoop=1;jettySize=auto;html=1;exitX=0.5;exitY=0.5;exitDx=0;exitDy=0;exitPerimeter=0;entryX=0;entryY=0.5;entryDx=0;entryDy=0;endArrow=none;startFill=0;" edge="1" parent="1" source="6u5pU1ec1JOGG7oy_YjI-43" target="6u5pU1ec1JOGG7oy_YjI-46">
          <mxGeometry relative="1" as="geometry" />
        </mxCell>
        <mxCell id="6u5pU1ec1JOGG7oy_YjI-43" value="Аналитик" style="shape=umlActor;verticalLabelPosition=bottom;verticalAlign=top;html=1;outlineConnect=0;" vertex="1" parent="1">
          <mxGeometry x="40" y="650" width="30" height="60" as="geometry" />
        </mxCell>
        <mxCell id="6u5pU1ec1JOGG7oy_YjI-46" value="Аналитика партнера на основе представленных данных" style="ellipse;whiteSpace=wrap;html=1;" vertex="1" parent="1">
          <mxGeometry x="250" y="590" width="200" height="80" as="geometry" />
        </mxCell>
        <mxCell id="6u5pU1ec1JOGG7oy_YjI-47" value="Аналитика поставляемых материалов" style="ellipse;whiteSpace=wrap;html=1;" vertex="1" parent="1">
          <mxGeometry x="250" y="690" width="200" height="80" as="geometry" />
        </mxCell>
        <mxCell id="6u5pU1ec1JOGG7oy_YjI-48" value="Принятие заявки от партнера" style="ellipse;whiteSpace=wrap;html=1;" vertex="1" parent="1">
          <mxGeometry x="250" y="60" width="200" height="80" as="geometry" />
        </mxCell>
        <mxCell id="6u5pU1ec1JOGG7oy_YjI-49" value="Изменение информации о партнере" style="ellipse;whiteSpace=wrap;html=1;" vertex="1" parent="1">
          <mxGeometry x="250" y="150" width="200" height="80" as="geometry" />
        </mxCell>
        <mxCell id="6u5pU1ec1JOGG7oy_YjI-50" value="Формирование предложения для партнера" style="ellipse;whiteSpace=wrap;html=1;" vertex="1" parent="1">
          <mxGeometry x="560" y="60" width="200" height="80" as="geometry" />
        </mxCell>
        <mxCell id="6u5pU1ec1JOGG7oy_YjI-51" value="Организация доставки заказа" style="ellipse;whiteSpace=wrap;html=1;" vertex="1" parent="1">
          <mxGeometry x="880" y="20" width="200" height="80" as="geometry" />
        </mxCell>
        <mxCell id="6u5pU1ec1JOGG7oy_YjI-52" value="Координация выполнения заявки партнера" style="ellipse;whiteSpace=wrap;html=1;" vertex="1" parent="1">
          <mxGeometry x="890" y="110" width="200" height="80" as="geometry" />
        </mxCell>
        <mxCell id="6u5pU1ec1JOGG7oy_YjI-53" value="Предоставление каталога продукции" style="ellipse;whiteSpace=wrap;html=1;" vertex="1" parent="1">
          <mxGeometry x="890" y="210" width="200" height="80" as="geometry" />
        </mxCell>
        <mxCell id="6u5pU1ec1JOGG7oy_YjI-54" value="Произведение закупки" style="ellipse;whiteSpace=wrap;html=1;" vertex="1" parent="1">
          <mxGeometry x="250" y="250" width="200" height="80" as="geometry" />
        </mxCell>
        <mxCell id="6u5pU1ec1JOGG7oy_YjI-55" value="Приемка заказа" style="ellipse;whiteSpace=wrap;html=1;" vertex="1" parent="1">
          <mxGeometry x="240" y="400" width="200" height="80" as="geometry" />
        </mxCell>
        <mxCell id="6u5pU1ec1JOGG7oy_YjI-56" value="Реализация продукции" style="ellipse;whiteSpace=wrap;html=1;" vertex="1" parent="1">
          <mxGeometry x="240" y="500" width="200" height="80" as="geometry" />
        </mxCell>
        <mxCell id="6u5pU1ec1JOGG7oy_YjI-57" value="Предоставление данных о реализации" style="ellipse;whiteSpace=wrap;html=1;" vertex="1" parent="1">
          <mxGeometry x="560" y="500" width="200" height="80" as="geometry" />
        </mxCell>
        <mxCell id="6u5pU1ec1JOGG7oy_YjI-58" value="Внесение предоплаты" style="ellipse;whiteSpace=wrap;html=1;" vertex="1" parent="1">
          <mxGeometry x="560" y="190" width="200" height="80" as="geometry" />
        </mxCell>
        <mxCell id="6u5pU1ec1JOGG7oy_YjI-59" value="Отмена заказа" style="ellipse;whiteSpace=wrap;html=1;" vertex="1" parent="1">
          <mxGeometry x="560" y="310" width="200" height="80" as="geometry" />
        </mxCell>
        <mxCell id="6u5pU1ec1JOGG7oy_YjI-60" value="Полная оплата заказа" style="ellipse;whiteSpace=wrap;html=1;" vertex="1" parent="1">
          <mxGeometry x="560" y="400" width="200" height="80" as="geometry" />
        </mxCell>
        <mxCell id="6u5pU1ec1JOGG7oy_YjI-61" value="" style="endArrow=none;html=1;rounded=0;exitX=0.5;exitY=0.5;exitDx=0;exitDy=0;exitPerimeter=0;entryX=0;entryY=0.5;entryDx=0;entryDy=0;" edge="1" parent="1" source="6u5pU1ec1JOGG7oy_YjI-43" target="6u5pU1ec1JOGG7oy_YjI-47">
          <mxGeometry width="50" height="50" relative="1" as="geometry">
            <mxPoint x="100" y="620" as="sourcePoint" />
            <mxPoint x="150" y="570" as="targetPoint" />
          </mxGeometry>
        </mxCell>
        <mxCell id="6u5pU1ec1JOGG7oy_YjI-70" value="Extends" style="endArrow=block;endSize=16;endFill=0;html=1;rounded=0;exitX=0;exitY=0.5;exitDx=0;exitDy=0;entryX=1;entryY=1;entryDx=0;entryDy=0;dashed=1;" edge="1" parent="1" source="6u5pU1ec1JOGG7oy_YjI-53" target="6u5pU1ec1JOGG7oy_YjI-50">
          <mxGeometry width="160" relative="1" as="geometry">
            <mxPoint x="480" y="180" as="sourcePoint" />
            <mxPoint x="640" y="180" as="targetPoint" />
          </mxGeometry>
        </mxCell>
        <mxCell id="6u5pU1ec1JOGG7oy_YjI-71" value="Include" style="endArrow=block;endSize=16;endFill=0;html=1;rounded=0;exitX=1;exitY=0.5;exitDx=0;exitDy=0;entryX=0;entryY=0.5;entryDx=0;entryDy=0;dashed=1;" edge="1" parent="1" source="6u5pU1ec1JOGG7oy_YjI-50" target="6u5pU1ec1JOGG7oy_YjI-51">
          <mxGeometry width="160" relative="1" as="geometry">
            <mxPoint x="860" y="420" as="sourcePoint" />
            <mxPoint x="730" y="230" as="targetPoint" />
          </mxGeometry>
        </mxCell>
        <mxCell id="6u5pU1ec1JOGG7oy_YjI-72" value="Include" style="endArrow=block;endSize=16;endFill=0;html=1;rounded=0;exitX=1;exitY=0.5;exitDx=0;exitDy=0;entryX=0;entryY=0.5;entryDx=0;entryDy=0;dashed=1;" edge="1" parent="1" source="6u5pU1ec1JOGG7oy_YjI-50" target="6u5pU1ec1JOGG7oy_YjI-52">
          <mxGeometry width="160" relative="1" as="geometry">
            <mxPoint x="830" y="385" as="sourcePoint" />
            <mxPoint x="700" y="195" as="targetPoint" />
          </mxGeometry>
        </mxCell>
        <mxCell id="6u5pU1ec1JOGG7oy_YjI-73" value="Include" style="endArrow=block;endSize=16;endFill=0;html=1;rounded=0;exitX=1;exitY=0.5;exitDx=0;exitDy=0;entryX=0;entryY=0.5;entryDx=0;entryDy=0;dashed=1;" edge="1" parent="1" source="6u5pU1ec1JOGG7oy_YjI-56" target="6u5pU1ec1JOGG7oy_YjI-57">
          <mxGeometry width="160" relative="1" as="geometry">
            <mxPoint x="480" y="490" as="sourcePoint" />
            <mxPoint x="530" y="540" as="targetPoint" />
          </mxGeometry>
        </mxCell>
        <mxCell id="6u5pU1ec1JOGG7oy_YjI-74" value="Include" style="endArrow=block;endSize=16;endFill=0;html=1;rounded=0;exitX=1;exitY=0.5;exitDx=0;exitDy=0;entryX=0;entryY=0.5;entryDx=0;entryDy=0;dashed=1;" edge="1" parent="1" source="6u5pU1ec1JOGG7oy_YjI-48" target="6u5pU1ec1JOGG7oy_YjI-50">
          <mxGeometry width="160" relative="1" as="geometry">
            <mxPoint x="530" y="90" as="sourcePoint" />
            <mxPoint x="650" y="90" as="targetPoint" />
          </mxGeometry>
        </mxCell>
        <mxCell id="6u5pU1ec1JOGG7oy_YjI-75" value="Include" style="endArrow=block;endSize=16;endFill=0;html=1;rounded=0;exitX=1;exitY=0.5;exitDx=0;exitDy=0;entryX=0;entryY=0.5;entryDx=0;entryDy=0;dashed=1;" edge="1" parent="1" source="6u5pU1ec1JOGG7oy_YjI-55" target="6u5pU1ec1JOGG7oy_YjI-60">
          <mxGeometry width="160" relative="1" as="geometry">
            <mxPoint x="460" y="530" as="sourcePoint" />
            <mxPoint x="580" y="530" as="targetPoint" />
          </mxGeometry>
        </mxCell>
        <mxCell id="6u5pU1ec1JOGG7oy_YjI-76" value="Include" style="endArrow=block;endSize=16;endFill=0;html=1;rounded=0;exitX=1;exitY=0.5;exitDx=0;exitDy=0;entryX=0;entryY=0.5;entryDx=0;entryDy=0;dashed=1;" edge="1" parent="1" source="6u5pU1ec1JOGG7oy_YjI-54" target="6u5pU1ec1JOGG7oy_YjI-58">
          <mxGeometry width="160" relative="1" as="geometry">
            <mxPoint x="450" y="310" as="sourcePoint" />
            <mxPoint x="570" y="310" as="targetPoint" />
          </mxGeometry>
        </mxCell>
        <mxCell id="6u5pU1ec1JOGG7oy_YjI-77" value="Extends" style="endArrow=block;endSize=16;endFill=0;html=1;rounded=0;exitX=0;exitY=0.5;exitDx=0;exitDy=0;entryX=1;entryY=1;entryDx=0;entryDy=0;dashed=1;" edge="1" parent="1" source="6u5pU1ec1JOGG7oy_YjI-59" target="6u5pU1ec1JOGG7oy_YjI-54">
          <mxGeometry width="160" relative="1" as="geometry">
            <mxPoint x="809" y="372" as="sourcePoint" />
            <mxPoint x="650" y="250" as="targetPoint" />
          </mxGeometry>
        </mxCell>
        <mxCell id="6u5pU1ec1JOGG7oy_YjI-78" value="Подсистема работы с партнерами" style="shape=umlFrame;whiteSpace=wrap;html=1;pointerEvents=0;width=150;height=40;" vertex="1" parent="1">
          <mxGeometry x="110" y="10" width="1010" height="790" as="geometry" />
        </mxCell>
      </root>
    </mxGraphModel>
  </diagram>
</mxfile>
